<?xml version="1.0" standalone="no"?><!DOCTYPE svg PUBLIC "-//W3C//DTD SVG 1.1//EN" "http://www.w3.org/Graphics/SVG/1.1/DTD/svg11.dtd"><svg t="1734007296289" class="icon" viewBox="0 0 1024 1024" version="1.1" xmlns="http://www.w3.org/2000/svg" p-id="11673" width="200" height="200" xmlns:xlink="http://www.w3.org/1999/xlink"><path d="M788.156632 710.332632h97.333894a430.996211 430.996211 0 0 1-373.490526 215.578947 430.996211 430.996211 0 0 1-373.490526-215.578947h97.333894A351.609263 351.609263 0 0 0 367.023158 813.810526a509.736421 509.736421 0 0 1-41.714526-103.477894h84.399157c27.432421 82.997895 67.691789 134.736842 102.346106 134.736842s74.913684-51.738947 102.346105-134.736842h84.399158a509.736421 509.736421 0 0 1-41.714526 103.477894 351.609263 351.609263 0 0 0 131.125894-103.477894z m0-431.157895a351.609263 351.609263 0 0 0-131.125895-103.370105c16.437895 29.911579 30.504421 64.727579 41.714526 103.424h-84.399158C586.913684 196.284632 546.654316 144.437895 512 144.437895s-74.913684 51.792842-102.346105 134.736842H325.254737a509.736421 509.736421 0 0 1 41.714526-103.424 351.609263 351.609263 0 0 0-131.125895 103.424H138.509474a430.996211 430.996211 0 0 1 373.490526-215.578948 430.996211 430.996211 0 0 1 373.490526 215.578948h-97.333894z m-412.618106 350.154105h-64.673684a293.941895 293.941895 0 0 0-6.790737-34.600421L279.498105 499.604211a508.065684 508.065684 0 0 1-9.054316-48.828632c-1.940211 13.258105-5.820632 33.630316-9.701052 48.828632l-23.929263 95.393684c-4.203789 16.168421-6.144 25.546105-7.114106 34.277052H165.349053c-1.616842-9.377684-3.233684-16.168421-8.084211-34.923789l-51.738947-194.021053a554.415158 554.415158 0 0 0-12.288-40.097684h73.728c0.323368 11.641263 1.940211 21.989053 4.527158 35.570526l20.695579 98.304c0.970105 4.850526 3.233684 20.048842 7.114105 45.594948 4.850526-27.162947 7.114105-38.804211 9.054316-45.594948l25.869473-100.24421c3.880421-14.551579 5.820632-24.576 7.114106-33.630316h57.559579c1.293474 8.407579 3.233684 17.461895 7.437473 32.660211l26.192842 99.597473c2.586947 10.347789 4.850526 21.018947 9.054316 47.21179 0.646737-6.144 0.646737-6.144 2.586947-19.725474 0.970105-7.114105 3.233684-22.635789 4.527158-27.809684l20.372211-96.36379c3.233684-14.874947 4.527158-24.252632 4.850526-35.570526H447.326316c-3.233684 8.730947-7.760842 23.929263-11.964632 40.097684l-51.738947 193.697684c-4.203789 15.198316-7.114105 27.486316-8.084211 35.247158z m297.175579-58.206316v60.469895a415.366737 415.366737 0 0 0-53.355789-2.263579h-101.861053c-24.576 0-33.630316 0.323368-47.535158 0.970105a298.037895 298.037895 0 0 0 2.586948-47.211789V406.528a342.770526 342.770526 0 0 0-2.586948-47.211789c13.258105 0.646737 22.312421 0.970105 47.535158 0.970105h103.154526c21.989053 0 32.983579-0.646737 48.181895-2.263579v60.469895a397.042526 397.042526 0 0 0-48.181895-2.263579h-84.075789v47.535158h69.847579c21.342316 0 29.103158-0.323368 48.505263-2.263579v59.823157a399.36 399.36 0 0 0-48.505263-2.263578H536.576v54.325894h83.429053c24.576 0 38.804211-0.646737 52.709052-2.263579z m168.798316 58.206316h-87.95621c-24.576 0-33.953684 0.323368-47.858527 0.970105 1.940211-13.904842 2.586947-24.899368 2.586948-47.535158V405.827368a357.861053 357.861053 0 0 0-2.586948-46.565052c16.491789 0.970105 21.018947 0.970105 47.535158 0.970105h84.722526c52.385684 0 83.105684 25.222737 83.105685 67.907368 0 19.725474-6.467368 35.247158-18.755369 46.241685-7.114105 6.144-12.934737 9.377684-26.192842 14.22821 15.845053 3.557053 24.252632 7.437474 33.630316 15.521684 13.904842 12.288 21.018947 29.749895 21.018947 51.092211 0 46.565053-32.983579 74.051368-89.249684 74.051368zM771.664842 464.033684h56.912842c17.138526 0 27.809684-10.024421 27.809684-25.869473s-10.024421-24.899368-28.456421-24.899369h-56.266105v50.768842z m0 51.738948v60.146526h59.49979c20.372211 0 32.660211-11.317895 32.66021-30.396632 0-18.755368-12.288-29.749895-32.983579-29.749894h-59.176421z" fill="#ffffff" p-id="11674"></path></svg>