<?xml version="1.0" standalone="no"?><!DOCTYPE svg PUBLIC "-//W3C//DTD SVG 1.1//EN" "http://www.w3.org/Graphics/SVG/1.1/DTD/svg11.dtd"><svg t="1733923347180" class="icon" viewBox="0 0 1053 1024" version="1.1" xmlns="http://www.w3.org/2000/svg" p-id="9789" xmlns:xlink="http://www.w3.org/1999/xlink" width="205.6640625" height="200"><path d="M21.037427 654.898351m13.043204 0l782.487082 0q13.043204 0 13.043205 13.043204l0 321.977814q0 13.043204-13.043205 13.043204l-782.487082 0q-13.043204 0-13.043204-13.043204l0-321.977814q0-13.043204 13.043204-13.043204Z" fill="#FFFFFF" p-id="9790"></path><path d="M816.567713 1024H34.080631A34.185818 34.185818 0 0 1 0 989.919369V667.941555a34.080631 34.080631 0 0 1 34.080631-34.080631h782.487082a34.185818 34.185818 0 0 1 34.080631 34.080631v321.977814a34.185818 34.185818 0 0 1-34.080631 34.080631zM42.074853 981.925147h766.498638V675.935777H42.074853zM86.884572 743.676291z" fill="#282D33" p-id="9791"></path><path d="M86.884572 722.638864h61.324098v42.074853H86.884572zM189.336839 743.676291zM189.442026 722.638864h61.324099v42.074853h-61.324099zM292.104668 743.676291zM292.104668 722.638864h61.324099v42.074853h-61.324099zM394.662123 743.676291zM394.662123 722.638864h61.324098v42.074853h-61.324098zM497.219577 743.676291zM497.219577 722.638864h61.324099v42.074853h-61.324099zM599.566658 743.676291zM599.882219 722.638864h61.324099v42.074853h-61.324099zM702.439674 743.676291zM702.439674 722.638864h61.324098v42.074853h-61.324098zM86.884572 828.877868zM86.884572 807.840442h61.324098v42.074853H86.884572zM189.336839 828.877868zM189.442026 807.840442h61.324099v42.074853h-61.324099zM292.104668 828.877868zM292.104668 807.840442h61.324099v42.074853h-61.324099zM394.662123 828.877868zM394.662123 807.840442h61.324098v42.074853h-61.324098zM497.219577 828.877868zM497.219577 807.840442h61.324099v42.074853h-61.324099zM599.566658 828.877868zM599.882219 807.840442h61.324099v42.074853h-61.324099zM702.439674 828.877868zM702.439674 807.840442h61.324098v42.074853h-61.324098zM86.884572 914.184633zM86.884572 893.147207h61.324098v42.074853H86.884572zM189.336839 914.184633zM189.442026 893.147207h61.324099v42.074853h-61.324099zM292.104668 914.184633zM292.104668 893.147207h370.048334v42.074853H292.104668zM702.439674 914.184633zM702.439674 893.147207h61.324098v42.074853h-61.324098zM373.203948 277.907666h21.037426v42.074853h-21.037426zM568.010518 558.757311h-42.705976v-42.074853H568.010518z m-85.411952 0h-42.705976v-42.074853h42.705976z m-85.411952 0H354.480638v-42.074853h42.705976z m-85.411952 0h-42.705976v-42.074853h42.705976z m-85.306765 0h-43.547473l1.682994-42.074853h42.074853z m-92.354302-10.518713a138.952203 138.952203 0 0 1-42.074854-27.243468l28.821275-30.714643a97.718847 97.718847 0 0 0 29.242023 19.144059zM63.11228 480.392897a138.847015 138.847015 0 0 1-14.30545-48.07052l42.074853-4.102298a98.455156 98.455156 0 0 0 9.677216 33.554695z m30.81983-87.094946L52.593566 382.67405a139.583325 139.583325 0 0 1 21.037427-45.335654l34.396193 24.298228a99.086279 99.086279 0 0 0-14.621012 31.661327zM133.16691 336.602086l-23.772292-34.711754a139.478138 139.478138 0 0 1 45.651216-20.406303l9.992778 40.917794A95.509917 95.509917 0 0 0 133.16691 336.602086z m197.331062-17.040315h-42.705976v-42.074853h42.705976z m-85.411952 0h-42.600789v-42.074853h42.600789zM610.926868 516.682458h21.037427v42.074853h-21.037427z" fill="#282D33" p-id="9792"></path><path d="M427.480508 506.163745h21.037427v42.074853h-21.037427zM927.11939 758.612864h-26.401971v-42.074854h26.401971a80.783718 80.783718 0 0 0 12.306894-1.262245l6.100854 42.074853a135.481027 135.481027 0 0 1-18.407748 1.262246z m65.216022-18.197374L970.561676 704.757052a84.991203 84.991203 0 0 0 24.508602-22.510047l33.975444 24.824163a126.22456 126.22456 0 0 1-36.71031 33.344322z m57.642549-78.89035l-41.022982-9.361655a80.678531 80.678531 0 0 0 2.314117-19.45962 85.937888 85.937888 0 0 0-1.47262-14.095075l42.074853-6.837164a122.122261 122.122261 0 0 1 1.682995 21.037427 128.959425 128.959425 0 0 1-3.576363 28.716087z m-51.541695-73.630993a86.253449 86.253449 0 0 0-22.930795-24.087854l24.298228-34.396192a126.960869 126.960869 0 0 1 34.185818 36.079187z m-53.224689-37.762181a86.56901 86.56901 0 0 0-18.092187-1.893368h-19.038871v-42.074853h19.038871a128.854238 128.854238 0 0 1 27.033093 2.840052z m-78.89035-1.893368h-42.074853v-42.074853h42.074853z m-84.149706 0h-42.074854v-42.074853h42.074854z m-83.518584 0h-42.074853v-42.074853h42.074853z m-83.518584 0h-42.074853v-42.074853h42.074853z m-84.149706 0h-42.074853v-42.074853h42.074853zM837.710327 716.53801h21.037426v42.074854h-21.037426z" fill="#282D33" p-id="9793"></path><path d="M576.951424 21.040687a279.166651 279.166651 0 1 0 270.01537 288.212745A279.482212 279.482212 0 0 0 576.951424 21.040687z" fill="#FFFFFF" p-id="9794"></path><path d="M568.010518 600.411416h-9.782403a300.519639 300.519639 0 0 1-290.316487-309.776107A298.836645 298.836645 0 0 1 568.010518 0.003261h9.88759A300.204077 300.204077 0 0 1 568.010518 600.411416zM568.010518 42.078114a257.18254 257.18254 0 1 0 8.520158 0z" fill="#282D33" p-id="9795"></path><path d="M820.459637 234.675754l-23.141169 39.760737-39.971111 75.629548-22.720421-48.491268-36.605122 22.930795-22.720421-43.863035-21.037426 25.3501-10.518713-2.94524-32.818386-13.884702 5.364544 34.711754 25.139725 10.518713L593.465804 441.789219l-19.880368 11.886146L557.491805 413.073132l-10.518714-68.056075-33.344321-2.419304-13.56914-25.560474 20.406304-51.226133 27.979777-5.574918 17.040316 11.886146 41.759291-9.151281-44.38897-26.191596-36.920683-7.257912-1.682994-11.36021 37.02587-19.880369-14.621011-24.298227 37.867368-32.29245 38.919239 15.04176 65.952332-18.302561L746.828644 110.344563a261.705587 261.705587 0 0 1 73.630993 124.331191zM410.229818 92.147189l-15.672882 25.139725-27.348655 46.387526a3.891924 3.891924 0 0 0 0 3.997111l17.25069 29.557584a4.41786 4.41786 0 0 0 3.365988 1.998556 3.997111 3.997111 0 0 0 3.365988-1.893369l16.093632-24.613789 29.557584 38.393304-61.008537 51.857256-33.76507 2.103743a4.102298 4.102298 0 0 0-3.576362 2.524491l-7.889035 21.037427a4.41786 4.41786 0 0 0 0.525936 3.786736l21.668549 29.452398-35.868812-17.881813-9.887591-12.938017A260.653715 260.653715 0 0 1 410.229818 92.147189zM392.979129 410.969389l-21.66855-45.651215 25.770848-53.540251L465.873812 378.676939l-63.11228 120.860016-11.36021-28.295339 2.314117-57.852923a3.050427 3.050427 0 0 0-0.73631-2.419304zM460.719642 166.619679L433.160613 104.138522a240.878534 240.878534 0 0 1 83.097835-24.92935l-14.410637 56.380303z" fill="#34CA9D" p-id="9796"></path></svg>