<?xml version="1.0" standalone="no"?><!DOCTYPE svg PUBLIC "-//W3C//DTD SVG 1.1//EN" "http://www.w3.org/Graphics/SVG/1.1/DTD/svg11.dtd"><svg t="1734020490872" class="icon" viewBox="0 0 1024 1024" version="1.1" xmlns="http://www.w3.org/2000/svg" p-id="7616" xmlns:xlink="http://www.w3.org/1999/xlink" width="200" height="200"><path d="M896 128v768H128V128h768m64-64H64v896h896V64z" fill="#727272" p-id="7617"></path><path d="M648.2 348.8L385.3 242.3 193 441.5v368.9h640V190.6L648.2 348.8zM769 746.3H257v-146l53.7-33 91.7-56.4 190.1 56.4 43.5 12.9 24.5 7.3 22.8-11.6 16.7-8.5 69-35.2V746.3zM654.2 518.9l-261-77.4L257 525.2v-57.9l144.4-149.5 222.8 90.3 36.1 14.6 29.6-25.3 79.2-67.8v130.5l-114.9 58.8z" fill="#727272" p-id="7618"></path><path d="M769 532.1v214.2H257v-146L402.4 511 636 580.2l24.6 7.3 22.7-11.6z" fill="#BFD1EB" p-id="7619"></path></svg>