<?xml version="1.0" standalone="no"?><!DOCTYPE svg PUBLIC "-//W3C//DTD SVG 1.1//EN" "http://www.w3.org/Graphics/SVG/1.1/DTD/svg11.dtd"><svg t="1734020330980" class="icon" viewBox="0 0 1042 1024" version="1.1" xmlns="http://www.w3.org/2000/svg" p-id="4250" xmlns:xlink="http://www.w3.org/1999/xlink" width="203.515625" height="200"><path d="M456.869455 59.268897A193.15225 193.15225 0 0 0 492.924541 0.03554H197.787904a32.449578 32.449578 0 0 0-31.934506 21.117979l-51.507266 176.154852c108.16526-14.937107 263.202132-50.992194 342.523323-138.039474zM908.07311 116.441963L879.229041 21.153519a32.449578 32.449578 0 0 0-31.934505-21.117979h-109.710478a9.786381 9.786381 0 0 0-10.301454 10.301453l13.39189 106.10497zM688.137082 116.441963l-13.39189-103.014534a13.906962 13.906962 0 0 0-14.422034-13.391889h-103.014533a13.906962 13.906962 0 0 0-13.39189 9.271308 237.448499 237.448499 0 0 1-48.41683 80.351336 302.862728 302.862728 0 0 1-29.359142 26.783779z" fill="#B7D9F7" p-id="4251"></path><path d="M396.605953 163.828648a869.957733 869.957733 0 0 1-289.470838 81.896554 13.391889 13.391889 0 0 0-11.331599 11.846671l-18.027543 56.657993h618.087199a13.906962 13.906962 0 0 0 14.422034-14.937107l-17.51247-135.979184z" fill="#89B4E8" p-id="4252"></path><path d="M384.244209 360.586406H84.471917a26.783779 26.783779 0 0 0-26.268706 18.027544L18.027543 515.108206a29.359142 29.359142 0 0 0 31.934506 35.024941h314.709399z" fill="#B7D9F7" p-id="4253"></path><path d="M1027.054896 515.108206l-103.014533-350.764486H746.855366l21.633052 170.489053a25.753633 25.753633 0 0 1-26.783779 27.813924H435.751475l-19.572761 188.001523h578.941677a29.359142 29.359142 0 0 0 31.934505-35.540014z" fill="#89B4E8" p-id="4254"></path><path d="M1009.027353 740.194961h-63.869011V824.151806h-46.35654v-83.956845h-83.441772v129.283239h-46.35654v-129.283239h-84.98699V824.151806h-46.35654v-82.411627h-82.411626v129.283239h-46.35654v-130.828457H425.450022V824.151806h-46.35654v-83.956845H300.802437v129.283239h-46.35654v-129.283239H167.398616V824.151806h-46.356539v-83.956845H43.781177a30.90436 30.90436 0 0 0-30.90436 30.90436v221.996319a30.90436 30.90436 0 0 0 30.90436 30.90436h965.246176a30.90436 30.90436 0 0 0 30.90436-30.90436V772.644539a30.90436 30.90436 0 0 0-30.90436-32.449578zM990.484737 581.55258v28.844069H51.507267v-28.844069H0v100.43917h51.507267v-30.389288h938.97747v30.389288h51.507266v-100.43917h-51.507266z" fill="#668FE0" p-id="4255"></path></svg>