<?xml version="1.0" standalone="no"?><!DOCTYPE svg PUBLIC "-//W3C//DTD SVG 1.1//EN" "http://www.w3.org/Graphics/SVG/1.1/DTD/svg11.dtd"><svg t="1734020079764" class="icon" viewBox="0 0 1024 1024" version="1.1" xmlns="http://www.w3.org/2000/svg" p-id="8687" xmlns:xlink="http://www.w3.org/1999/xlink" width="200" height="200"><path d="M566.211765 864.376471v66.258823c-27.105882 6.023529-27.105882 9.035294-54.211765 9.035294-234.917647 0-427.670588-192.752941-427.670588-427.670588S277.082353 84.329412 512 84.329412 939.670588 277.082353 939.670588 512c0 30.117647-3.011765 36.141176-9.035294 63.247059h-66.258823c6.023529-27.105882 9.035294-33.129412 9.035294-63.247059 0-144.564706-84.329412-271.058824-210.82353-328.282353 3.011765 12.047059 9.035294 30.117647 9.035294 33.129412 3.011765 21.082353-3.011765 39.152941-24.094117 48.188235-12.047059 6.023529-24.094118 3.011765-39.152941 0-3.011765 0-54.211765-27.105882-69.270589-15.058823s-6.023529 45.176471-6.023529 51.2c6.023529 42.164706 6.023529 57.223529-9.035294 78.305882-27.105882 39.152941-66.258824 63.247059-132.517647 87.341176-33.129412 12.047059-81.317647 30.117647-84.329412 45.176471-3.011765 12.047059 21.082353 45.176471 21.082353 54.211765 3.011765 24.094118-9.035294 42.164706-33.129412 51.2-15.058824 6.023529-33.129412 3.011765-48.188235-6.02353-6.023529-3.011765-30.117647-18.070588-33.129412-18.070588-24.094118-15.058824-42.164706-21.082353-60.235294-18.070588 12.047059 63.247059 39.152941 120.470588 78.305882 168.658823 9.035294-3.011765 18.070588-6.023529 30.117647-6.023529 15.058824-3.011765 27.105882-9.035294 45.176471-18.070588 3.011765-3.011765 12.047059-6.023529 12.047059-9.035294 6.023529-3.011765 9.035294-6.023529 15.058823-9.035295 27.105882-15.058824 54.211765-18.070588 84.329412-6.023529 66.258824 27.105882 129.505882 120.470588 111.435294 177.694118 21.082353 0 15.058824-3.011765 36.141177-9.035294z m-117.458824 6.023529l18.070588-18.070588c9.035294-9.035294-36.141176-81.317647-75.294117-96.376471-12.047059-3.011765-18.070588-3.011765-30.117647 3.011765-3.011765 3.011765-6.023529 3.011765-12.047059 6.023529 0 0-9.035294 6.023529-12.047059 9.035294-18.070588 12.047059-36.141176 18.070588-54.211765 24.094118 51.2 36.141176 105.411765 60.235294 165.647059 72.282353z m147.576471-710.776471C569.223529 153.6 542.117647 150.588235 512 150.588235 313.223529 150.588235 150.588235 310.211765 150.588235 512c33.129412-3.011765 63.247059 6.023529 96.376471 27.105882 0 0-3.011765-15.058824-3.011765-27.105882 0-48.188235 42.164706-75.294118 129.505883-105.411765 57.223529-18.070588 84.329412-36.141176 99.388235-63.247059 0-3.011765-3.011765-45.176471-3.011765-48.188235-6.023529-45.176471 0-75.294118 30.117647-99.388235 12.047059-9.035294 27.105882-15.058824 42.164706-15.058824 21.082353 0 36.141176 3.011765 60.235294 12.047059-3.011765-12.047059-6.023529-21.082353-6.023529-33.129412z" fill="#87A5DB" p-id="8688"></path><path d="M768 635.482353c30.117647-6.023529 60.235294-6.023529 90.352941 0 21.082353 3.011765 42.164706 9.035294 63.247059 15.058823 15.058824 3.011765 27.105882 15.058824 30.117647 30.117648 9.035294 27.105882 18.070588 51.2 27.105882 78.305882 3.011765 3.011765 6.023529 12.047059 9.035295 9.035294 18.070588-3.011765 33.129412 9.035294 36.141176 27.105882v15.058824l-24.094118 6.023529c0 9.035294 3.011765 18.070588 3.011765 27.105883v126.494117c0 9.035294-3.011765 15.058824-6.023529 21.082353-21.082353 6.023529-45.176471 6.023529-66.258824 0-15.058824-12.047059-6.023529-27.105882-12.047059-42.164706h-204.8c-3.011765 15.058824-6.023529 42.164706-12.047059 42.164706-24.094118 3.011765-45.176471 3.011765-69.270588 0-6.023529-6.023529-6.023529-15.058824-9.035294-24.094117v-54.211765V813.176471l-21.082353-3.011765v-12.047059c6.023529-18.070588 15.058824-33.129412 36.141177-30.117647 3.011765 0 6.023529-6.023529 9.035294-9.035294 9.035294-21.082353 15.058824-42.164706 21.082353-60.235294 9.035294-30.117647 33.129412-54.211765 63.247059-57.22353 12.047059-3.011765 24.094118-3.011765 36.141176-6.023529z m-93.364706 141.552941c90.352941 21.082353 183.717647 21.082353 274.070588 0-9.035294-24.094118-15.058824-48.188235-21.082353-69.270588-3.011765-18.070588-18.070588-30.117647-36.141176-30.117647-42.164706-3.011765-84.329412-6.023529-129.505882-6.02353-15.058824 0-27.105882 3.011765-42.164706 6.02353-6.023529 0-12.047059 6.023529-15.058824 12.047059-12.047059 27.105882-18.070588 54.211765-30.117647 87.341176z m18.070588 105.411765h21.082353c6.023529 0 12.047059-6.023529 15.058824-12.047059 0-3.011765-3.011765-12.047059-9.035294-15.058824-15.058824-9.035294-33.129412-15.058824-51.2-21.082352-9.035294-3.011765-18.070588-3.011765-21.082353 9.035294-3.011765 21.082353 0 30.117647 15.058823 36.141176 9.035294 0 18.070588 0 30.117647 3.011765z m243.952942 0c12.047059 0 21.082353-3.011765 33.129411-3.011765 15.058824-3.011765 12.047059-18.070588 12.047059-30.117647s-6.023529-18.070588-15.058823-15.058823c-21.082353 6.023529-42.164706 15.058824-63.247059 27.105882-9.035294 6.023529-6.023529 18.070588 6.023529 21.082353 6.023529-3.011765 15.058824 0 27.105883 0z" fill="#87A5DB" p-id="8689"></path></svg>